<svg width="84" height="81" viewBox="0 0 84 81" fill="none" xmlns="http://www.w3.org/2000/svg">
<path d="M23.25 27.3094C24.6959 25.7814 27.0625 24.3334 30.5417 24.3334C35.3417 24.3334 38.4334 27.5014 39.5209 30.9774C40.575 34.3654 39.9375 38.5574 36.9375 41.4494C35.897 42.4097 34.7934 43.3049 33.6334 44.1294L33.4667 44.2534C32.3 45.1174 31.2584 45.9014 30.3417 46.7734C29.2792 47.7974 28.4084 48.9134 27.9042 50.3334H36.7917C37.6205 50.3334 38.4154 50.6494 39.0014 51.2121C39.5875 51.7747 39.9167 52.5377 39.9167 53.3334C39.9167 54.129 39.5875 54.8921 39.0014 55.4547C38.4154 56.0173 37.6205 56.3334 36.7917 56.3334H24.2917C23.4629 56.3334 22.668 56.0173 22.082 55.4547C21.4959 54.8921 21.1667 54.129 21.1667 53.3334C21.1667 48.3454 23.35 45.0014 25.9334 42.5294C27.1667 41.3454 28.5084 40.3494 29.6417 39.5054L29.6542 39.4974C30.8459 38.6134 31.7709 37.9254 32.5084 37.2174C33.6417 36.1214 34.0375 34.3174 33.5334 32.6974C33.0542 31.1734 31.9917 30.3334 30.5417 30.3334C29.0709 30.3334 28.3125 30.8814 27.875 31.3454C27.6191 31.6166 27.4108 31.9259 27.2584 32.2614V32.2734C27.0031 33.0308 26.4449 33.6599 25.7064 34.0222C24.968 34.3846 24.1099 34.4504 23.3209 34.2054C22.5319 33.9603 21.8766 33.4244 21.4991 32.7155C21.1217 32.0066 21.0531 31.1828 21.3084 30.4254L21.4542 30.0414C21.8823 29.0381 22.4885 28.1137 23.2459 27.3094H23.25ZM47.2084 24.3334C48.0372 24.3334 48.832 24.6494 49.4181 25.2121C50.0041 25.7747 50.3334 26.5377 50.3334 27.3334V38.3334H56.5834V27.3334C56.5834 26.5377 56.9126 25.7747 57.4987 25.2121C58.0847 24.6494 58.8796 24.3334 59.7084 24.3334C60.5372 24.3334 61.332 24.6494 61.9181 25.2121C62.5041 25.7747 62.8334 26.5377 62.8334 27.3334V53.2134C62.8334 54.009 62.5041 54.7721 61.9181 55.3347C61.332 55.8973 60.5372 56.2134 59.7084 56.2134C58.8796 56.2134 58.0847 55.8973 57.4987 55.3347C56.9126 54.7721 56.5834 54.009 56.5834 53.2134V44.3334H47.2084C46.3796 44.3334 45.5847 44.0173 44.9987 43.4547C44.4126 42.8921 44.0834 42.129 44.0834 41.3334V27.3334C44.0834 26.5377 44.4126 25.7747 44.9987 25.2121C45.5847 24.6494 46.3796 24.3334 47.2084 24.3334V24.3334ZM83.6667 40.3334C83.6667 18.2414 65.0125 0.333374 42 0.333374C18.9875 0.333374 0.333374 18.2414 0.333374 40.3334C0.333374 62.4254 18.9875 80.3334 42 80.3334C65.0125 80.3334 83.6667 62.4254 83.6667 40.3334ZM6.58337 40.3334C6.58337 31.316 10.3148 22.668 16.9567 16.2917C23.5986 9.91551 32.607 6.33337 42 6.33337C51.3931 6.33337 60.4015 9.91551 67.0434 16.2917C73.6853 22.668 77.4167 31.316 77.4167 40.3334C77.4167 49.3507 73.6853 57.9988 67.0434 64.375C60.4015 70.7512 51.3931 74.3334 42 74.3334C32.607 74.3334 23.5986 70.7512 16.9567 64.375C10.3148 57.9988 6.58337 49.3507 6.58337 40.3334V40.3334Z" fill="#33C130"/>
</svg>
