<svg width="50" height="51" viewBox="0 0 50 51" fill="none" xmlns="http://www.w3.org/2000/svg">
<path d="M0 43.8014C0 45.4554 0.658482 47.0415 1.83059 48.211C3.00269 49.3805 4.5924 50.0376 6.25 50.0376H43.75C45.4076 50.0376 46.9973 49.3805 48.1694 48.211C49.3415 47.0415 50 45.4554 50 43.8014V6.38458C50 4.73065 49.3415 3.14446 48.1694 1.97496C46.9973 0.805458 45.4076 0.148438 43.75 0.148438L6.25 0.148438C4.5924 0.148438 3.00269 0.805458 1.83059 1.97496C0.658482 3.14446 0 4.73065 0 6.38458V43.8014ZM14.0625 23.534H32.1656L25.4562 16.8426C25.1629 16.5498 24.998 16.1528 24.998 15.7388C24.998 15.3248 25.1629 14.9277 25.4562 14.635C25.7496 14.3422 26.1476 14.1778 26.5625 14.1778C26.9774 14.1778 27.3754 14.3422 27.6688 14.635L37.0438 23.9892C37.1893 24.134 37.3047 24.3061 37.3835 24.4955C37.4622 24.6849 37.5028 24.8879 37.5028 25.093C37.5028 25.2981 37.4622 25.5011 37.3835 25.6905C37.3047 25.8799 37.1893 26.052 37.0438 26.1968L27.6688 35.551C27.3754 35.8438 26.9774 36.0082 26.5625 36.0082C26.1476 36.0082 25.7496 35.8438 25.4562 35.551C25.1629 35.2583 24.998 34.8612 24.998 34.4472C24.998 34.0332 25.1629 33.6362 25.4562 33.3434L32.1656 26.652H14.0625C13.6481 26.652 13.2507 26.4878 12.9576 26.1954C12.6646 25.903 12.5 25.5065 12.5 25.093C12.5 24.6795 12.6646 24.283 12.9576 23.9906C13.2507 23.6982 13.6481 23.534 14.0625 23.534Z" fill="#26E350"/>
</svg>
