<svg width="101" height="80" viewBox="0 0 101 80" fill="none" xmlns="http://www.w3.org/2000/svg">
<path d="M26.3622 34.2857C28.6058 22.8571 38.7019 14.2857 50.4808 14.2857C58.8942 14.2857 65.625 18.2857 70.1122 24.5714L79.6474 13.1429C72.9167 5.14286 62.2596 0 50.4808 0C30.8494 0 14.5833 14.8571 11.7788 34.2857H0L19.6314 57.1429L39.2628 34.2857H26.3622ZM81.3301 22.8571L61.6987 45.7143H74.5994C71.7949 57.1429 62.2596 65.7143 50.4808 65.7143C42.0673 65.7143 35.3365 61.7143 30.8494 55.4286L21.3141 66.2857C28.0449 74.8571 38.7019 80 50.4808 80C70.1122 80 86.3782 65.1429 89.1827 45.7143H100.962L81.3301 22.8571Z" fill="#33C130"/>
</svg>
