<svg width="47" height="45" viewBox="0 0 47 45" fill="none" xmlns="http://www.w3.org/2000/svg">
<path d="M45.8186 3.125C45.3299 2.688 44.6909 2.46625 44.0418 2.50843C43.3927 2.55062 42.7865 2.85328 42.3564 3.35L37.7647 8.725L36.2178 6.95C35.7847 6.45272 35.1754 6.15096 34.5238 6.11111C33.8722 6.07126 33.2317 6.29658 32.7433 6.7375C32.2549 7.17843 31.9585 7.79883 31.9194 8.46224C31.8802 9.12565 32.1015 9.77772 32.5346 10.275L35.9477 14.175C36.18 14.4371 36.4642 14.6462 36.7817 14.7884C37.0991 14.9306 37.4425 15.0027 37.7893 15C38.1337 14.996 38.4736 14.9183 38.7866 14.7719C39.0997 14.6254 39.3789 14.4135 39.6063 14.15L46.015 6.65C46.4472 6.15564 46.6692 5.50695 46.6324 4.84616C46.5956 4.18538 46.3029 3.56642 45.8186 3.125V3.125ZM17.1881 20C19.1307 20 21.0296 19.4135 22.6448 18.3147C24.26 17.2159 25.5188 15.6541 26.2622 13.8268C27.0056 11.9996 27.2001 9.98891 26.8211 8.0491C26.4422 6.10929 25.5067 4.32746 24.1331 2.92894C22.7595 1.53041 21.0095 0.578004 19.1042 0.192152C17.199 -0.1937 15.2242 0.00433281 13.4295 0.761209C11.6348 1.51809 10.1008 2.79981 9.02159 4.4443C7.94236 6.08879 7.36633 8.02219 7.36633 10C7.36633 12.6522 8.40112 15.1957 10.2431 17.0711C12.085 18.9464 14.5832 20 17.1881 20ZM31.9207 45C32.572 45 33.1965 44.7366 33.657 44.2678C34.1175 43.7989 34.3762 43.163 34.3762 42.5C34.3762 37.8587 32.5653 33.4075 29.3419 30.1256C26.1185 26.8437 21.7467 25 17.1881 25C12.6295 25 8.25767 26.8437 5.03428 30.1256C1.81088 33.4075 6.79279e-08 37.8587 0 42.5C0 43.163 0.258698 43.7989 0.719182 44.2678C1.17967 44.7366 1.80422 45 2.45544 45" fill="#2C59FA"/>
</svg>
