<svg width="50" height="45" viewBox="0 0 50 45" fill="none" xmlns="http://www.w3.org/2000/svg">
<path d="M19.8367 32.5V30H2.50439L2.47959 40C2.47959 42.775 4.68643 45 7.43878 45H42.1531C44.9054 45 47.1122 42.775 47.1122 40V30H29.7551V32.5H19.8367ZM44.6327 10H34.6895V5L29.7303 0H19.8119L14.8528 5V10H4.95918C2.23163 10 0 12.25 0 15V22.5C0 25.275 2.20684 27.5 4.95918 27.5H19.8367V22.5H29.7551V27.5H44.6327C47.3602 27.5 49.5918 25.25 49.5918 22.5V15C49.5918 12.25 47.3602 10 44.6327 10ZM29.7551 10H19.8367V5H29.7551V10Z" fill="#2C59FA"/>
</svg>
